# xmcd
#
# Track frame offsets:
#	150
#	14405
#	26118
#	37841
#	48516
#	60761
#	75347
#	85510
#	96324
#	108486
#	119307
#	130992
#	141050
#	155493
#	168842
#
# Disc length: 2400 seconds
#
# Revision: 0
# Processed by: cddbd v1.5.2PL0 Copyright (c) Steve Scherf et al.
# Submitted via: EasyCDDAExtractor 16.0.5.1
#
DISCID=b0095e0f
DTITLE=Buddy Guy and Junior Wells - Viper Snakebite V
DYEAR=1900
DGENRE=
TTITLE0=I Got A Strange Feeling (Buddy Guy)
TTITLE1=Calling The Blues (Junior Wells)
TTITLE2=Galloping Horses A Lazy Mule (Junior Wells)
TTITLE3=You Don't Care (Junior Wells)
TTITLE4=Two Headed Woman (Junior Wells)
TTITLE5=Broken Hearted Blues (Buddy Guy)
TTITLE6=First Time I Met The Blues (Buddy Guy)
TTITLE7=Cha Cha Cha In Blues (Junior Wells)
TTITLE8=Ten Years Ago (Buddy Guy)
TTITLE9=Come On In This House (Junior Wells)
TTITLE10=Little By Little (Junior Wells)
TTITLE11=Lovey Dovey Lovey One (Junior Wells)
TTITLE12=I Could Cry (Junior Wells)
TTITLE13=Let Me Love You Baby (Buddy Guy)
TTITLE14=Prison Bars All Around Me (Junior Wells)
EXTD=
EXTT0=
EXTT1=
EXTT2=
EXTT3=
EXTT4=
EXTT5=
EXTT6=
EXTT7=
EXTT8=
EXTT9=
EXTT10=
EXTT11=
EXTT12=
EXTT13=
EXTT14=
PLAYORDER=
